<svg xmlns="http://www.w3.org/2000/svg" width="40" height="40" fill="none" viewBox="0 0 40 40">
  <g clip-path="url(#a)">
    <path fill="#CDCDCD" d="M28.818.794H11.182L.797 11.144v17.574l10.385 10.35h17.636l10.385-10.35V11.144L28.818.794ZM11.23 20.077c0 3.883-3.158 7.03-7.054 7.03V12.755c3.896 0 7.054 3.147 7.054 7.03v.292ZM20 23.251a3.325 3.325 0 0 1-3.332-3.32A3.325 3.325 0 0 1 20 16.61a3.325 3.325 0 0 1 3.331 3.32 3.325 3.325 0 0 1-3.33 3.32Zm15.822 3.856c-3.896 0-7.054-3.147-7.054-7.03v-.293c0-3.882 3.158-7.03 7.054-7.03v14.353Z"/>
    <path fill="#484848" d="M28.818 39.862H11.182a.799.799 0 0 1-.563-.233L.233 29.28A.793.793 0 0 1 0 28.72V11.143c0-.21.084-.413.233-.562L10.62.232A.798.798 0 0 1 11.182 0h17.636c.211 0 .414.084.563.233l10.386 10.35a.79.79 0 0 1 .233.56v17.575c0 .21-.084.413-.233.562L29.38 39.63a.799.799 0 0 1-.563.232Zm-17.306-1.588h16.976l9.918-9.885V11.473l-9.918-9.885H11.512l-9.918 9.884V28.39l9.918 9.885ZM35.823 27.9c-4.329 0-7.851-3.51-7.851-7.824v-.292c0-4.315 3.522-7.824 7.851-7.824.44 0 .797.355.797.794v14.352a.795.795 0 0 1-.797.794Zm-.797-14.3c-3.075.391-5.46 3.016-5.46 6.186v.292c0 3.17 2.385 5.795 5.46 6.186V13.599ZM4.176 27.901a.795.795 0 0 1-.796-.794V12.755c0-.439.357-.794.797-.794 4.329 0 7.851 3.51 7.851 7.824v.292c0 4.314-3.522 7.824-7.851 7.824ZM4.975 13.6v12.664c3.075-.391 5.46-3.016 5.46-6.186v-.292c0-3.17-2.385-5.795-5.46-6.186ZM20 24.045c-2.276 0-4.128-1.846-4.128-4.114s1.852-4.114 4.128-4.114 4.128 1.846 4.128 4.114-1.852 4.114-4.128 4.114Zm0-6.64a2.533 2.533 0 0 0-2.534 2.526A2.533 2.533 0 0 0 20 22.457a2.533 2.533 0 0 0 2.534-2.526A2.533 2.533 0 0 0 20 17.405Z"/>
    <path fill="#F8F7FC" d="m14.165 5.322-.323.322a.366.366 0 0 1-.243.091c-.252 0-.424-.262-.424-.523 0-.181.091-.373.253-.473l1.191-.906a.41.41 0 0 1 .273-.1c.273 0 .586.16.586.422v6.542c0 .271-.333.412-.657.412-.333 0-.656-.14-.656-.412V5.322Zm2.353 3.543V6.057c0-1.68 1.03-2.305 2.363-2.305 1.334 0 2.374.624 2.374 2.305v2.808c0 1.68-1.04 2.305-2.374 2.305-1.333 0-2.363-.624-2.363-2.305Zm3.424-2.808c0-.795-.404-1.157-1.06-1.157-.667 0-1.051.362-1.051 1.157v2.808c0 .795.384 1.158 1.05 1.158.657 0 1.06-.363 1.06-1.158V6.057Zm2.242 2.808V6.057c0-1.68 1.03-2.305 2.363-2.305s2.373.624 2.373 2.305v2.808c0 1.68-1.04 2.305-2.373 2.305-1.333 0-2.363-.624-2.363-2.305Zm3.423-2.808c0-.795-.404-1.157-1.06-1.157-.667 0-1.05.362-1.05 1.157v2.808c0 .795.383 1.158 1.05 1.158.656 0 1.06-.363 1.06-1.158V6.057ZM14.165 30.256l-.323.322a.366.366 0 0 1-.243.09c-.252 0-.424-.261-.424-.523 0-.181.091-.372.253-.473l1.191-.906c.071-.06.162-.1.273-.1.273 0 .586.16.586.422v6.542c0 .272-.333.413-.656.413-.334 0-.657-.141-.657-.413v-5.374Zm2.353 3.542V30.99c0-1.68 1.03-2.304 2.363-2.304 1.334 0 2.374.624 2.374 2.305v2.807c0 1.681-1.04 2.305-2.374 2.305-1.333 0-2.363-.624-2.363-2.305Zm3.424-2.808c0-.794-.404-1.157-1.06-1.157-.667 0-1.051.363-1.051 1.158v2.807c0 .795.384 1.158 1.05 1.158.657 0 1.06-.363 1.06-1.158V30.99Zm2.242 2.808V30.99c0-1.68 1.03-2.304 2.363-2.304s2.373.624 2.373 2.305v2.807c0 1.681-1.04 2.305-2.373 2.305-1.333 0-2.363-.624-2.363-2.305Zm3.423-2.808c0-.794-.404-1.157-1.06-1.157-.667 0-1.05.363-1.05 1.158v2.807c0 .795.383 1.158 1.05 1.158.656 0 1.06-.363 1.06-1.158V30.99Z"/>
    <path fill="#484848" d="M20 26.506c-3.638 0-6.598-2.95-6.598-6.575 0-3.626 2.96-6.575 6.598-6.575.44 0 .797.355.797.794a.795.795 0 0 1-.797.794c-2.76 0-5.005 2.237-5.005 4.987s2.246 4.987 5.005 4.987c1.762 0 3.414-.94 4.311-2.453a.798.798 0 0 1 1.092-.28c.379.224.504.71.28 1.088A6.635 6.635 0 0 1 20 26.506Zm5.783-5.305a.795.795 0 0 1-.795-.859c.011-.135.017-.274.017-.411 0-.439.357-.794.797-.794.44 0 .796.355.796.794 0 .18-.007.362-.022.54a.796.796 0 0 1-.793.73Z"/>
  </g>
  <defs>
    <clipPath id="a">
      <path fill="#fff" d="M0 0h40v39.862H0z"/>
    </clipPath>
  </defs>
</svg>
